<svg width="20" height="20" viewBox="0 0 20 20" fill="none" xmlns="http://www.w3.org/2000/svg">
<path d="M9.54016 7.17383L10.2942 8.19845C10.0264 8.27348 9.58785 8.38898 9.10616 8.51302C9.23522 8.30433 9.34175 8.05889 9.41613 7.81411C9.4835 7.59295 9.52441 7.37573 9.54016 7.17383Z" fill="white" stroke="white" stroke-width="0.5"/>
<path d="M11.8853 8.09756C11.7433 8.09756 11.6283 7.98248 11.6283 7.84053C11.6283 7.69857 11.7433 7.5835 11.8853 7.5835C12.0273 7.5835 12.1423 7.69857 12.1423 7.84053C12.1423 7.98248 12.0273 8.09756 11.8853 8.09756Z" fill="white" stroke="white" stroke-width="0.5"/>
<mask id="path-3-outside-1_131_3655" maskUnits="userSpaceOnUse" x="-0.25" y="0.25" width="20" height="20" fill="black">
<rect fill="white" x="-0.25" y="0.25" width="20" height="20"/>
<path d="M10 1.25C14.8326 1.25 18.75 5.16759 18.75 10C18.75 14.8326 14.8326 18.75 10 18.75C5.16738 18.75 1.25 14.8326 1.25 10C1.25 5.16759 5.16738 1.25 10 1.25ZM8.16797 5.86672L7.70903 5.43447C7.62131 5.35156 7.48284 5.35572 7.40016 5.44366C7.31725 5.53137 7.32141 5.66984 7.40934 5.75275L7.86806 6.185C7.91028 6.22503 7.96409 6.2445 8.01812 6.2445C8.07653 6.2445 8.13428 6.22153 8.17759 6.17581C8.26006 6.08809 8.25591 5.94984 8.16797 5.86672ZM12.5075 12.9019C12.5075 12.912 12.5082 12.9221 12.5097 12.9323L12.6967 14.2825C12.7118 14.3918 12.8057 14.471 12.9131 14.471C12.9232 14.471 12.9332 14.4704 12.9435 14.4688C13.0632 14.4524 13.1467 14.342 13.1301 14.2221L12.945 12.8868V9.46997L13.7868 10.3115C13.7868 10.3115 13.787 10.3117 13.7872 10.3117C13.7971 10.3218 13.8108 10.3275 13.8231 10.3356C13.8356 10.3437 13.8465 10.3544 13.8601 10.3594C13.8603 10.3594 13.8603 10.3596 13.8605 10.3596C13.887 10.3706 13.9143 10.3752 13.9414 10.3752C13.967 10.3752 13.9918 10.3697 14.0156 10.3607C14.0226 10.3583 14.0289 10.3548 14.0357 10.3513C14.0534 10.3428 14.0694 10.3321 14.0845 10.3194C14.0882 10.3159 14.0928 10.3148 14.0963 10.3115C14.0985 10.3091 14.0992 10.3067 14.1009 10.3043C14.1171 10.2868 14.1311 10.2669 14.1412 10.2439C14.142 10.2422 14.1438 10.2402 14.1447 10.2387C14.1447 10.2384 14.1449 10.2384 14.1449 10.2382L14.8641 8.43441C14.909 8.32219 14.8543 8.19488 14.7418 8.15025C14.6303 8.10541 14.5025 8.16009 14.4577 8.27253L13.8614 9.76791L12.8814 8.78813C12.8613 8.76778 12.837 8.75181 12.8101 8.74066C12.7567 8.71834 12.6963 8.71834 12.6429 8.74066C12.5893 8.76297 12.5467 8.80541 12.5246 8.859C12.5134 8.88569 12.5078 8.91412 12.5078 8.94256L12.5075 12.9019ZM12.5804 7.84006C12.5804 7.45703 12.2689 7.14531 11.8858 7.14531C11.5028 7.14531 11.1911 7.45703 11.1911 7.84006C11.1911 8.22287 11.5028 8.53437 11.8858 8.53437C12.2689 8.53437 12.5804 8.22287 12.5804 7.84006ZM11.7297 10.495C11.7297 10.6162 11.8274 10.7138 11.9484 10.7138C12.0694 10.7138 12.1672 10.6162 12.1672 10.495V8.94213C12.1672 8.82116 12.0694 8.72338 11.9484 8.72338C11.8274 8.72338 11.7297 8.82116 11.7297 8.94213V10.495ZM7.809 8.38825C7.84641 8.73978 7.97766 8.90997 8.09819 8.99375C8.09819 8.99441 8.09819 8.99506 8.09819 8.99572C8.12313 9.09503 8.21216 9.16109 8.31016 9.16109C8.32809 9.16109 8.34603 9.15891 8.36397 9.15453C8.72928 9.06244 9.03772 8.98391 9.29913 8.91653C9.29453 8.95416 9.29584 8.99288 9.31247 9.03028L9.84447 10.2452C9.85497 10.2686 9.86984 10.2887 9.88669 10.3067C9.88822 10.3084 9.88866 10.3106 9.89019 10.3117C9.89347 10.3152 9.89762 10.3161 9.90091 10.3185C9.91644 10.3323 9.93306 10.3437 9.95144 10.3522C9.958 10.3557 9.96456 10.3585 9.97134 10.3612C9.99475 10.3697 10.019 10.3752 10.0442 10.3752C10.0444 10.3752 10.0446 10.3754 10.0448 10.3754C10.0457 10.3754 10.047 10.3747 10.0479 10.3747C10.0759 10.3745 10.1037 10.3688 10.1299 10.3577C10.1308 10.3572 10.1319 10.3574 10.1328 10.357C10.1463 10.3513 10.1557 10.3408 10.1676 10.3327C10.1781 10.3253 10.1903 10.3207 10.1995 10.3113L10.2037 10.3071L10.2039 10.3067L11.0408 9.46953V11.4125L10.6062 12.5007C10.5959 12.5266 10.5906 12.5541 10.5906 12.5819V14.3288C10.5906 14.4498 10.6884 14.5476 10.8094 14.5476C10.9303 14.5476 11.0281 14.4498 11.0281 14.3288V12.6239L11.4628 11.5354C11.4731 11.5096 11.4783 11.4822 11.4783 11.4545V8.94213C11.4783 8.91369 11.4726 8.88525 11.4615 8.85856C11.4392 8.80497 11.3967 8.76253 11.3431 8.74022C11.2898 8.71791 11.2294 8.71791 11.176 8.74022C11.1491 8.75138 11.1248 8.76734 11.1047 8.78769L10.1168 9.77578L9.71322 8.85441C9.70687 8.83953 9.69572 8.82859 9.68631 8.81569C10.6921 8.55209 10.7453 8.51666 10.7744 8.49697C10.8238 8.46394 10.8575 8.41166 10.8678 8.35303C10.8781 8.29441 10.8636 8.23403 10.8284 8.18591L9.35119 6.178C9.28819 6.09269 9.17663 6.07059 9.08387 6.11347C9.05172 6.10647 9.01891 6.09903 8.98522 6.09903C8.523 6.09903 8.12334 6.73384 7.93216 7.36297C7.82169 7.72719 7.77794 8.09119 7.809 8.38825ZM7.56947 7.10506C7.62109 6.99591 7.57428 6.86531 7.46513 6.81369L6.75112 6.47572C6.64175 6.42366 6.51138 6.47091 6.45975 6.58006C6.40813 6.68922 6.45494 6.81981 6.56409 6.87144L7.27809 7.20941C7.3085 7.22363 7.34022 7.23041 7.37172 7.23041C7.45309 7.23019 7.53228 7.18403 7.56947 7.10506ZM6.50722 8.40531H7.25884C7.37981 8.40531 7.47759 8.30753 7.47759 8.18656C7.47759 8.06559 7.37981 7.96781 7.25884 7.96781H6.50722C6.38625 7.96781 6.28847 8.06559 6.28847 8.18656C6.28847 8.30753 6.38625 8.40531 6.50722 8.40531Z"/>
</mask>
<path d="M10 1.25C14.8326 1.25 18.75 5.16759 18.75 10C18.75 14.8326 14.8326 18.75 10 18.75C5.16738 18.75 1.25 14.8326 1.25 10C1.25 5.16759 5.16738 1.25 10 1.25ZM8.16797 5.86672L7.70903 5.43447C7.62131 5.35156 7.48284 5.35572 7.40016 5.44366C7.31725 5.53137 7.32141 5.66984 7.40934 5.75275L7.86806 6.185C7.91028 6.22503 7.96409 6.2445 8.01812 6.2445C8.07653 6.2445 8.13428 6.22153 8.17759 6.17581C8.26006 6.08809 8.25591 5.94984 8.16797 5.86672ZM12.5075 12.9019C12.5075 12.912 12.5082 12.9221 12.5097 12.9323L12.6967 14.2825C12.7118 14.3918 12.8057 14.471 12.9131 14.471C12.9232 14.471 12.9332 14.4704 12.9435 14.4688C13.0632 14.4524 13.1467 14.342 13.1301 14.2221L12.945 12.8868V9.46997L13.7868 10.3115C13.7868 10.3115 13.787 10.3117 13.7872 10.3117C13.7971 10.3218 13.8108 10.3275 13.8231 10.3356C13.8356 10.3437 13.8465 10.3544 13.8601 10.3594C13.8603 10.3594 13.8603 10.3596 13.8605 10.3596C13.887 10.3706 13.9143 10.3752 13.9414 10.3752C13.967 10.3752 13.9918 10.3697 14.0156 10.3607C14.0226 10.3583 14.0289 10.3548 14.0357 10.3513C14.0534 10.3428 14.0694 10.3321 14.0845 10.3194C14.0882 10.3159 14.0928 10.3148 14.0963 10.3115C14.0985 10.3091 14.0992 10.3067 14.1009 10.3043C14.1171 10.2868 14.1311 10.2669 14.1412 10.2439C14.142 10.2422 14.1438 10.2402 14.1447 10.2387C14.1447 10.2384 14.1449 10.2384 14.1449 10.2382L14.8641 8.43441C14.909 8.32219 14.8543 8.19488 14.7418 8.15025C14.6303 8.10541 14.5025 8.16009 14.4577 8.27253L13.8614 9.76791L12.8814 8.78813C12.8613 8.76778 12.837 8.75181 12.8101 8.74066C12.7567 8.71834 12.6963 8.71834 12.6429 8.74066C12.5893 8.76297 12.5467 8.80541 12.5246 8.859C12.5134 8.88569 12.5078 8.91412 12.5078 8.94256L12.5075 12.9019ZM12.5804 7.84006C12.5804 7.45703 12.2689 7.14531 11.8858 7.14531C11.5028 7.14531 11.1911 7.45703 11.1911 7.84006C11.1911 8.22287 11.5028 8.53437 11.8858 8.53437C12.2689 8.53437 12.5804 8.22287 12.5804 7.84006ZM11.7297 10.495C11.7297 10.6162 11.8274 10.7138 11.9484 10.7138C12.0694 10.7138 12.1672 10.6162 12.1672 10.495V8.94213C12.1672 8.82116 12.0694 8.72338 11.9484 8.72338C11.8274 8.72338 11.7297 8.82116 11.7297 8.94213V10.495ZM7.809 8.38825C7.84641 8.73978 7.97766 8.90997 8.09819 8.99375C8.09819 8.99441 8.09819 8.99506 8.09819 8.99572C8.12313 9.09503 8.21216 9.16109 8.31016 9.16109C8.32809 9.16109 8.34603 9.15891 8.36397 9.15453C8.72928 9.06244 9.03772 8.98391 9.29913 8.91653C9.29453 8.95416 9.29584 8.99288 9.31247 9.03028L9.84447 10.2452C9.85497 10.2686 9.86984 10.2887 9.88669 10.3067C9.88822 10.3084 9.88866 10.3106 9.89019 10.3117C9.89347 10.3152 9.89762 10.3161 9.90091 10.3185C9.91644 10.3323 9.93306 10.3437 9.95144 10.3522C9.958 10.3557 9.96456 10.3585 9.97134 10.3612C9.99475 10.3697 10.019 10.3752 10.0442 10.3752C10.0444 10.3752 10.0446 10.3754 10.0448 10.3754C10.0457 10.3754 10.047 10.3747 10.0479 10.3747C10.0759 10.3745 10.1037 10.3688 10.1299 10.3577C10.1308 10.3572 10.1319 10.3574 10.1328 10.357C10.1463 10.3513 10.1557 10.3408 10.1676 10.3327C10.1781 10.3253 10.1903 10.3207 10.1995 10.3113L10.2037 10.3071L10.2039 10.3067L11.0408 9.46953V11.4125L10.6062 12.5007C10.5959 12.5266 10.5906 12.5541 10.5906 12.5819V14.3288C10.5906 14.4498 10.6884 14.5476 10.8094 14.5476C10.9303 14.5476 11.0281 14.4498 11.0281 14.3288V12.6239L11.4628 11.5354C11.4731 11.5096 11.4783 11.4822 11.4783 11.4545V8.94213C11.4783 8.91369 11.4726 8.88525 11.4615 8.85856C11.4392 8.80497 11.3967 8.76253 11.3431 8.74022C11.2898 8.71791 11.2294 8.71791 11.176 8.74022C11.1491 8.75138 11.1248 8.76734 11.1047 8.78769L10.1168 9.77578L9.71322 8.85441C9.70687 8.83953 9.69572 8.82859 9.68631 8.81569C10.6921 8.55209 10.7453 8.51666 10.7744 8.49697C10.8238 8.46394 10.8575 8.41166 10.8678 8.35303C10.8781 8.29441 10.8636 8.23403 10.8284 8.18591L9.35119 6.178C9.28819 6.09269 9.17663 6.07059 9.08387 6.11347C9.05172 6.10647 9.01891 6.09903 8.98522 6.09903C8.523 6.09903 8.12334 6.73384 7.93216 7.36297C7.82169 7.72719 7.77794 8.09119 7.809 8.38825ZM7.56947 7.10506C7.62109 6.99591 7.57428 6.86531 7.46513 6.81369L6.75112 6.47572C6.64175 6.42366 6.51138 6.47091 6.45975 6.58006C6.40813 6.68922 6.45494 6.81981 6.56409 6.87144L7.27809 7.20941C7.3085 7.22363 7.34022 7.23041 7.37172 7.23041C7.45309 7.23019 7.53228 7.18403 7.56947 7.10506ZM6.50722 8.40531H7.25884C7.37981 8.40531 7.47759 8.30753 7.47759 8.18656C7.47759 8.06559 7.37981 7.96781 7.25884 7.96781H6.50722C6.38625 7.96781 6.28847 8.06559 6.28847 8.18656C6.28847 8.30753 6.38625 8.40531 6.50722 8.40531Z" stroke="white" stroke-width="1.6" mask="url(#path-3-outside-1_131_3655)"/>
<path d="M8.98472 6.53711C9.0031 6.54127 9.02169 6.55767 9.04116 6.59377C9.12954 6.7598 9.15404 7.1728 8.99763 7.68773C8.80469 8.32255 8.48685 8.64105 8.36326 8.64105C8.35997 8.64105 8.35779 8.64083 8.35516 8.64017C8.32826 8.63186 8.26613 8.54852 8.24404 8.34289C8.21932 8.1062 8.25782 7.79558 8.35035 7.49086C8.5435 6.85583 8.86113 6.53711 8.98472 6.53711Z" fill="white" stroke="white" stroke-width="0.5"/>
</svg>
