<svg width="20" height="20" viewBox="0 0 20 20" fill="none" xmlns="http://www.w3.org/2000/svg">
<path d="M6.18182 3C5.55251 3 4.93734 3.18661 4.4141 3.53623C3.89085 3.88586 3.48303 4.38279 3.2422 4.96419C3.00138 5.54559 2.93837 6.18535 3.06114 6.80256C3.18391 7.41977 3.48695 7.98672 3.93193 8.4317C4.37692 8.87669 4.94386 9.17973 5.56108 9.3025C6.17829 9.42527 6.81805 9.36226 7.39945 9.12143C7.98085 8.88061 8.47778 8.47279 8.8274 7.94954C9.17703 7.42629 9.36364 6.81112 9.36364 6.18182C9.36364 5.33795 9.02841 4.52864 8.4317 3.93193C7.835 3.33523 7.02569 3 6.18182 3ZM6.18182 8.09091C5.80424 8.09091 5.43513 7.97894 5.12118 7.76917C4.80724 7.5594 4.56254 7.26124 4.41805 6.9124C4.27355 6.56356 4.23575 6.1797 4.30941 5.80937C4.38307 5.43905 4.5649 5.09888 4.83189 4.83189C5.09888 4.5649 5.43905 4.38307 5.80937 4.30941C6.1797 4.23575 6.56356 4.27355 6.9124 4.41805C7.26124 4.56254 7.5594 4.80724 7.76917 5.12118C7.97894 5.43513 8.09091 5.80424 8.09091 6.18182C8.09091 6.68814 7.88977 7.17373 7.53175 7.53175C7.17373 7.88977 6.68814 8.09091 6.18182 8.09091ZM13.8182 9.36364C14.4475 9.36364 15.0627 9.17703 15.5859 8.8274C16.1091 8.47778 16.517 7.98085 16.7578 7.39945C16.9986 6.81805 17.0616 6.17829 16.9389 5.56108C16.8161 4.94386 16.513 4.37692 16.0681 3.93193C15.6231 3.48695 15.0561 3.18391 14.4389 3.06114C13.8217 2.93837 13.182 3.00138 12.6006 3.2422C12.0191 3.48303 11.5222 3.89085 11.1726 4.4141C10.823 4.93734 10.6364 5.55251 10.6364 6.18182C10.6364 7.02569 10.9716 7.835 11.5683 8.4317C12.165 9.02841 12.9743 9.36364 13.8182 9.36364ZM13.8182 4.27273C14.1958 4.27273 14.5649 4.38469 14.8788 4.59447C15.1928 4.80424 15.4375 5.1024 15.5819 5.45124C15.7264 5.80008 15.7643 6.18394 15.6906 6.55426C15.6169 6.92459 15.4351 7.26476 15.1681 7.53175C14.9011 7.79874 14.561 7.98056 14.1906 8.05423C13.8203 8.12789 13.4364 8.09008 13.0876 7.94559C12.7388 7.80109 12.4406 7.5564 12.2308 7.24245C12.0211 6.9285 11.9091 6.5594 11.9091 6.18182C11.9091 5.6755 12.1102 5.18991 12.4682 4.83189C12.8263 4.47386 13.3119 4.27273 13.8182 4.27273ZM6.18182 10.6364C5.55251 10.6364 4.93734 10.823 4.4141 11.1726C3.89085 11.5222 3.48303 12.0191 3.2422 12.6006C3.00138 13.182 2.93837 13.8217 3.06114 14.4389C3.18391 15.0561 3.48695 15.6231 3.93193 16.0681C4.37692 16.513 4.94386 16.8161 5.56108 16.9389C6.17829 17.0616 6.81805 16.9986 7.39945 16.7578C7.98085 16.517 8.47778 16.1091 8.8274 15.5859C9.17703 15.0627 9.36364 14.4475 9.36364 13.8182C9.36364 12.9743 9.02841 12.165 8.4317 11.5683C7.835 10.9716 7.02569 10.6364 6.18182 10.6364ZM6.18182 15.7273C5.80424 15.7273 5.43513 15.6153 5.12118 15.4055C4.80724 15.1958 4.56254 14.8976 4.41805 14.5488C4.27355 14.1999 4.23575 13.8161 4.30941 13.4457C4.38307 13.0754 4.5649 12.7352 4.83189 12.4682C5.09888 12.2013 5.43905 12.0194 5.80937 11.9458C6.1797 11.8721 6.56356 11.9099 6.9124 12.0544C7.26124 12.1989 7.5594 12.4436 7.76917 12.7575C7.97894 13.0715 8.09091 13.4406 8.09091 13.8182C8.09091 14.3245 7.88977 14.8101 7.53175 15.1681C7.17373 15.5261 6.68814 15.7273 6.18182 15.7273ZM13.8182 10.6364C13.1889 10.6364 12.5737 10.823 12.0505 11.1726C11.5272 11.5222 11.1194 12.0191 10.8786 12.6006C10.6377 13.182 10.5747 13.8217 10.6975 14.4389C10.8203 15.0561 11.1233 15.6231 11.5683 16.0681C12.0133 16.513 12.5802 16.8161 13.1974 16.9389C13.8146 17.0616 14.4544 16.9986 15.0358 16.7578C15.6172 16.517 16.1141 16.1091 16.4638 15.5859C16.8134 15.0627 17 14.4475 17 13.8182C17 12.9743 16.6648 12.165 16.0681 11.5683C15.4714 10.9716 14.6621 10.6364 13.8182 10.6364ZM13.8182 15.7273C13.4406 15.7273 13.0715 15.6153 12.7575 15.4055C12.4436 15.1958 12.1989 14.8976 12.0544 14.5488C11.9099 14.1999 11.8721 13.8161 11.9458 13.4457C12.0194 13.0754 12.2013 12.7352 12.4682 12.4682C12.7352 12.2013 13.0754 12.0194 13.4457 11.9458C13.8161 11.8721 14.1999 11.9099 14.5488 12.0544C14.8976 12.1989 15.1958 12.4436 15.4055 12.7575C15.6153 13.0715 15.7273 13.4406 15.7273 13.8182C15.7273 14.3245 15.5261 14.8101 15.1681 15.1681C14.8101 15.5261 14.3245 15.7273 13.8182 15.7273Z" fill="white"/>
</svg>
