<svg width="20" height="20" viewBox="0 0 20 20" fill="none" xmlns="http://www.w3.org/2000/svg">
<g clip-path="url(#clip0_131_3641)">
<path d="M12.856 14.3715L13.9005 13.2637H11.8115L12.856 14.3715Z" fill="white" stroke="white" stroke-width="0.462714"/>
<path d="M7.14307 14.3715L8.18756 13.2637H6.09863L7.14307 14.3715Z" fill="white" stroke="white" stroke-width="0.462714"/>
<path d="M7.14409 12.7365C7.73784 12.7356 7.99063 12.3513 8.09511 11.969L8.07604 11.7251C8.04749 11.3577 8.08298 11.084 8.17108 10.8724C7.94556 10.8052 7.85241 10.5595 7.8067 10.4014C7.49945 10.5462 6.75518 10.8731 5.81578 10.8898C5.81231 10.9289 5.81055 10.968 5.81055 11.0066V11.401C5.81055 12.1363 6.40879 12.7353 7.14409 12.7365Z" fill="white"/>
<path d="M11.9243 11.7251L11.8941 12.1115C12.0244 12.4018 12.296 12.7356 12.8567 12.7365C13.5915 12.7354 14.1898 12.1363 14.1898 11.401V11.0066C14.1898 10.9681 14.1881 10.9294 14.1846 10.8904H14.0078C13.6901 10.8904 13.5728 10.5859 13.5195 10.4014C13.2483 10.5292 12.6364 10.7986 11.8506 10.8715C11.9225 11.1269 11.9484 11.4154 11.9243 11.7251Z" fill="white"/>
<path d="M19.0746 2.44141H0.925429C0.415147 2.44141 0 2.85655 0 3.36684V16.633C0 17.1433 0.415147 17.5585 0.925429 17.5585H19.0746C19.5849 17.5585 20 17.1433 20 16.633V3.36684C20 2.85655 19.5849 2.44141 19.0746 2.44141ZM2.29571 4.22503H8.48535V5.55501H2.29571V4.22503ZM2.29571 6.9531H8.48535V8.28313H2.29571V6.9531ZM14.9015 15.2595H12.2391L12.2375 16.4415H7.76259L7.76092 15.2595H5.09856L5.09615 13.554C5.09615 13.1635 5.51398 13.0165 5.84973 12.8983C5.92358 12.8723 6.00719 12.8429 6.07539 12.8133C6.0642 12.801 6.05286 12.7885 6.04139 12.7759C5.75173 12.4582 5.42357 12.0983 5.42139 11.4623L5.38267 10.9666C5.2953 9.84322 5.85519 9.67072 6.7027 9.40961C6.8268 9.37139 6.95506 9.33183 7.09258 9.28629C7.27045 9.22734 7.44521 9.19745 7.61202 9.19745C7.96655 9.19745 8.27667 9.33011 8.5089 9.58109C8.67386 9.75937 8.79028 9.98907 8.85437 10.2546C9.04889 10.1711 9.27271 10.1019 9.5191 10.026C9.65593 9.98384 9.79747 9.94025 9.94915 9.89C10.1435 9.82559 10.3344 9.79292 10.5165 9.79292C10.799 9.79292 11.0554 9.87056 11.2718 10.0191C11.494 9.69408 11.9018 9.56804 12.4158 9.40965C12.5399 9.37143 12.6682 9.33192 12.8057 9.28634C12.9836 9.22739 13.1584 9.1975 13.3252 9.1975C13.6797 9.1975 13.9898 9.33016 14.2221 9.58114C14.5214 9.90462 14.6618 10.3967 14.6175 10.9667L14.5788 11.4624C14.5766 12.0984 14.2484 12.4583 13.9588 12.776C13.9473 12.7886 13.936 12.8011 13.9248 12.8134C13.993 12.843 14.0766 12.8724 14.1505 12.8984C14.4862 13.0166 14.904 13.1636 14.904 13.5541L14.9015 15.2595ZM17.7043 8.28313H11.5147V6.9531H17.7043L17.7043 8.28313ZM17.7043 5.55506H11.5147V4.22503H17.7043L17.7043 5.55506Z" stroke="white" stroke-width="0.6"/>
<path d="M11.2694 11.6258C10.9185 11.6258 10.799 11.2859 10.7418 11.0801C10.414 11.2354 9.57902 11.61 8.52167 11.6253C8.51686 11.674 8.5144 11.7225 8.5144 11.7705V12.2052C8.5144 13.0247 9.18118 13.6925 10.0008 13.6937C10.8199 13.6925 11.4867 13.0247 11.4867 12.2052V11.9027C11.4662 11.8134 11.4513 11.721 11.4423 11.6258H11.2694Z" fill="white"/>
<path d="M10.0001 15.4789L11.1514 14.2578H8.84888L10.0001 15.4789Z" fill="white" stroke="white" stroke-width="0.462714"/>
</g>
<defs>
<clipPath id="clip0_131_3641">
<rect width="20" height="20" fill="white"/>
</clipPath>
</defs>
</svg>
