<svg width="20" height="20" viewBox="0 0 20 20" fill="none" xmlns="http://www.w3.org/2000/svg">
<path d="M5.7699 0.250093C5.6933 0.311293 5.6895 0.583092 5.7469 1.99949C5.7699 2.44749 5.7661 2.77269 5.7469 2.81109C5.6779 2.94129 5.5441 2.93349 5.2569 2.78429C4.9965 2.64649 4.9813 2.64649 4.8893 2.70389C4.8357 2.73829 4.7935 2.79969 4.7935 2.83789C4.7935 2.88009 4.9007 3.38909 5.0309 3.97869L5.2643 5.04289L5.2911 6.36369L5.3141 7.68449L5.4941 8.21669C5.9075 9.43029 6.5277 10.2915 7.3853 10.8313C7.6685 11.0113 7.6725 11.0151 7.6495 11.1491C7.6381 11.2219 7.6265 11.3213 7.6265 11.3635C7.6265 11.4439 7.6035 11.4477 7.0447 11.4669C6.2293 11.4975 5.8389 11.6239 5.3527 12.0181C5.0501 12.2589 3.0519 14.8735 2.8795 15.2487C2.6919 15.6621 2.6499 15.9339 2.6499 16.8335C2.6499 17.9589 2.7417 18.3111 3.1629 18.8701C3.4271 19.2185 3.9361 19.5745 4.3037 19.6663L4.4071 19.6931L4.4185 18.7935C4.4299 17.9513 4.4339 17.8863 4.5103 17.7867C4.6443 17.6067 4.7783 17.5301 4.9581 17.5301C5.1763 17.5301 5.3525 17.6373 5.4443 17.8287C5.5131 17.9741 5.5209 18.0699 5.5209 18.8929V19.8003H9.2725H13.0241V18.8701C13.0241 18.0471 13.0317 17.9283 13.0929 17.8097C13.1887 17.6259 13.4605 17.4881 13.6595 17.5263C13.8547 17.5607 14.0539 17.7521 14.0959 17.9435C14.1151 18.0277 14.1341 18.4795 14.1341 18.9427V19.7925L14.3945 19.7427C15.0797 19.6125 15.7305 19.1263 16.0367 18.5215C16.2779 18.0469 16.2893 17.9741 16.3085 16.9941C16.3199 16.2437 16.3123 16.0333 16.2587 15.7997C16.1821 15.4437 15.9945 15.0685 15.7495 14.7699L15.5657 14.5403L14.9187 14.5365C14.1723 14.5327 13.9043 14.4753 13.3453 14.2149C12.9319 14.0197 12.6179 13.7939 12.2849 13.4569C11.9441 13.1123 11.7873 12.8865 11.5843 12.4693C11.3087 11.8913 11.2435 11.5773 11.2475 10.8615C11.2513 10.1303 11.3125 9.84709 11.6073 9.25369C11.9557 8.54169 12.5183 7.97129 13.2227 7.60369L13.5595 7.43149V5.65529C13.5595 4.52209 13.5441 3.80629 13.5175 3.67609C13.4945 3.56509 13.4065 3.32769 13.3223 3.14789C13.0467 2.56989 12.4801 2.10669 11.8523 1.94589C11.6571 1.89609 11.3585 1.88469 10.1067 1.88469H8.5985L8.2199 1.40609C8.0131 1.14189 7.8103 0.919893 7.7719 0.904692C7.6761 0.874092 7.5843 0.939093 7.5155 1.08469C7.4695 1.18429 7.4275 1.21869 7.3395 1.22629C7.2399 1.23389 7.1289 1.16129 6.5931 0.720892C6.2445 0.433891 5.9345 0.200293 5.8999 0.200293C5.8693 0.200293 5.8119 0.223293 5.7699 0.250093Z" fill="white"/>
<path d="M12.8901 8.56083C12.5379 8.71403 12.3579 9.15803 12.5035 9.50643C12.5341 9.57923 12.8519 9.92743 13.2117 10.2874L13.8663 10.9382L13.2155 11.589C12.8173 11.9872 12.5455 12.2972 12.5073 12.3814C12.3503 12.7566 12.5341 13.1892 12.9169 13.3498C13.0853 13.4188 13.1811 13.4226 13.3877 13.3652C13.5103 13.3308 13.6749 13.193 14.2223 12.6494L14.8999 11.9754L15.5813 12.6492C16.2551 13.3192 16.3737 13.4072 16.6225 13.4072C16.9861 13.4072 17.3461 13.0474 17.3499 12.6876C17.3499 12.4388 17.2427 12.2894 16.5729 11.6196L15.9145 10.9574L16.5919 10.2796C17.2847 9.57903 17.3499 9.48343 17.3499 9.19623C17.3461 8.96663 17.1087 8.63343 16.8791 8.54923C16.7259 8.48803 16.4887 8.49563 16.3241 8.56463C16.2399 8.60283 15.9299 8.87463 15.5317 9.27283L14.8809 9.92363L14.2491 9.28823C13.8701 8.90543 13.5563 8.62223 13.4643 8.58003C13.2845 8.49583 13.0547 8.48803 12.8901 8.56083Z" fill="white"/>
</svg>
