<svg width="190" height="46" viewBox="0 0 190 46" fill="none" xmlns="http://www.w3.org/2000/svg">
<mask id="mask0_131_3708" style="mask-type:luminance" maskUnits="userSpaceOnUse" x="0" y="-2" width="191" height="50">
<path d="M190.786 -1.83447H0V47.6966H190.786V-1.83447Z" fill="white"/>
</mask>
<g mask="url(#mask0_131_3708)">
<path fill-rule="evenodd" clip-rule="evenodd" d="M73.5479 21.825L78.7051 19.5444L79.2928 25.0615L77.9219 24.0839C75.5066 29.6445 69.9574 33.5322 63.4951 33.5322C63.0817 33.5322 62.6682 33.5106 62.2544 33.4889C67.5203 31.5123 72.025 28.2759 75.4411 23.0849L73.5479 21.825Z" fill="white"/>
<path fill-rule="evenodd" clip-rule="evenodd" d="M69.3937 13.0709L76.7915 8.29248L77.9015 16.6114L75.7252 15.5905C71.7219 22.9103 65.172 30.5341 59.5147 31.5333C56.4681 32.25 53.0517 29.839 51.5503 28.0145C57.2079 30.143 63.4098 28.8617 72.0046 14.0701L69.3937 13.0709Z" fill="white"/>
<path fill-rule="evenodd" clip-rule="evenodd" d="M60.9765 17.0674L58.8871 15.8511L65.3062 12.6147L65.9372 19.5436L64.1098 18.5878C61.8684 23.0189 58.278 26.1029 54.1437 26.5375C52.0549 26.7546 50.0529 26.1681 48.769 23.3012C51.5979 25.3863 57.3859 24.2134 60.9765 17.0674Z" fill="white"/>
<path fill-rule="evenodd" clip-rule="evenodd" d="M60.125 3.90535C63.0408 2.88449 66.0652 2.81934 69.2203 3.25374C67.436 2.5587 65.521 2.18945 63.4979 2.18945C54.8373 2.18945 47.8088 9.20513 47.8088 17.8498C47.9177 19.2833 48.7881 20.5649 50.1154 20.8254C51.9432 21.1077 53.684 19.6092 55.2289 17.2634L56.4041 18.067L56.5127 13.6361L52.5307 15.6126L53.7275 16.2208C52.8355 17.4588 51.7038 18.5014 50.8771 18.3493C49.8979 18.1539 49.7674 16.6334 50.1808 14.3311C51.3122 9.5961 55.5988 5.51266 60.125 3.90535Z" fill="white"/>
<path d="M18.7394 0.755371V29.7667H15.0465L3.40899 7.3905V29.7667H-0.263916V0.755371H3.40899L15.1064 23.1913V0.755371H18.7394Z" fill="white"/>
<path d="M42.5697 26.6383V29.7667H29.9541V26.6383H42.5697ZM30.6128 0.755371V29.7667H26.9399V0.755371H30.6128ZM40.873 13.2286V16.3569H29.9541V13.2286H40.873ZM42.3702 0.755371V3.90357H29.9541V0.755371H42.3702Z" fill="white"/>
<path d="M93.8858 0.755371V29.7667H90.2528V0.755371H93.8858ZM101.531 0.755371V3.90358H82.6274V0.755371H101.531Z" fill="white"/>
<path d="M124.732 26.6385V29.7667H112.117V26.6385H124.732ZM112.775 0.755371V29.7667H109.103V0.755371H112.775ZM123.036 13.2286V16.3569H112.117V13.2286H123.036ZM124.533 0.755371V3.90358H112.117V0.755371H124.533Z" fill="white"/>
<path d="M132.168 0.755371H140.292C142.182 0.755371 143.766 1.08746 145.043 1.75163C146.334 2.41581 147.306 3.39879 147.958 4.70058C148.623 5.98907 148.956 7.57647 148.956 9.4627C148.956 10.7911 148.736 12.0065 148.297 13.109C147.858 14.1983 147.219 15.1281 146.381 15.8986C145.543 16.6558 144.524 17.2203 143.326 17.5922L142.329 18.0107H135.083L135.042 14.8824H140.253C141.371 14.8824 142.302 14.6433 143.047 14.1651C143.792 13.6736 144.351 13.0161 144.724 12.1925C145.096 11.3689 145.283 10.459 145.283 9.4627C145.283 8.3469 145.117 7.37057 144.784 6.53371C144.451 5.69683 143.919 5.0526 143.187 4.60095C142.468 4.13603 141.504 3.90357 140.292 3.90357H135.841V29.7667H132.168V0.755371ZM146.121 29.7667L140.333 16.6159L144.145 16.596L150.054 29.5275V29.7667H146.121Z" fill="white"/>
<path d="M161.593 0.755371V29.7667H157.92V0.755371H161.593Z" fill="white"/>
<path d="M183.322 20.5416H186.995C186.902 22.5341 186.496 24.2544 185.777 25.7022C185.072 27.1369 184.041 28.2394 182.683 29.0099C181.339 29.7803 179.656 30.1654 177.633 30.1654C176.182 30.1654 174.871 29.8799 173.701 29.3087C172.53 28.7376 171.525 27.9206 170.686 26.8579C169.861 25.782 169.229 24.4934 168.79 22.9924C168.351 21.4914 168.132 19.8044 168.132 17.9314V12.5715C168.132 10.7119 168.351 9.03148 168.79 7.53049C169.243 6.02945 169.888 4.7476 170.727 3.68492C171.578 2.60897 172.609 1.78539 173.821 1.2142C175.045 0.643014 176.429 0.357422 177.972 0.357422C179.862 0.357422 181.459 0.736001 182.763 1.49316C184.08 2.23703 185.092 3.3329 185.797 4.78081C186.516 6.21543 186.915 7.97547 186.995 10.061H183.322C183.229 8.53338 182.99 7.29139 182.603 6.33497C182.217 5.36529 181.645 4.65462 180.887 4.20299C180.141 3.73806 179.17 3.5056 177.972 3.5056C176.908 3.5056 175.983 3.71813 175.198 4.14321C174.426 4.56828 173.787 5.17932 173.281 5.97633C172.789 6.76004 172.416 7.70981 172.164 8.82564C171.924 9.92815 171.804 11.1635 171.804 12.5317V17.9314C171.804 19.2067 171.904 20.3955 172.104 21.4981C172.317 22.6006 172.65 23.5702 173.102 24.4071C173.567 25.2308 174.173 25.8749 174.918 26.3398C175.664 26.8047 176.568 27.0373 177.633 27.0373C178.977 27.0373 180.042 26.818 180.827 26.3797C181.612 25.9414 182.191 25.2439 182.564 24.2876C182.949 23.3312 183.202 22.0825 183.322 20.5416Z" fill="white"/>
<path d="M39.2131 38.0051V45.2337H38.308V38.0051H39.2131ZM41.1181 38.0051V38.7896H36.408V38.0051H41.1181ZM46.0818 44.4543V45.2337H42.9384V44.4543H46.0818ZM43.1026 38.0051V45.2337H42.1874V38.0051H43.1026ZM45.659 41.113V41.8926H42.9384V41.113H45.659ZM46.032 38.0051V38.7896H42.9384V38.0051H46.032ZM50.8764 42.9351H51.7917C51.7683 43.4316 51.6672 43.8602 51.4882 44.2208C51.3125 44.5784 51.0554 44.8531 50.7172 45.0451C50.3824 45.2371 49.9629 45.3331 49.4588 45.3331C49.0975 45.3331 48.7709 45.2618 48.479 45.1195C48.1874 44.9772 47.9369 44.7737 47.7281 44.5089C47.5226 44.2408 47.365 43.9197 47.2556 43.5458C47.1462 43.1716 47.0914 42.7514 47.0914 42.2847V40.9492C47.0914 40.4858 47.1462 40.067 47.2556 39.6931C47.3683 39.3192 47.529 38.9998 47.738 38.7349C47.9502 38.4668 48.2071 38.2616 48.5088 38.1193C48.814 37.977 49.1588 37.9058 49.5434 37.9058C50.0142 37.9058 50.4123 38.0002 50.7372 38.1889C51.0655 38.3741 51.3174 38.6471 51.4932 39.008C51.6722 39.3653 51.7717 39.8041 51.7917 40.3237H50.8764C50.8533 39.943 50.7936 39.6336 50.6975 39.3952C50.6013 39.1537 50.4586 38.9766 50.2696 38.8639C50.0839 38.7482 49.8419 38.6903 49.5434 38.6903C49.2782 38.6903 49.0477 38.7431 48.8522 38.8491C48.6599 38.9549 48.5007 39.1073 48.3747 39.3059C48.252 39.5012 48.1591 39.7378 48.0962 40.0159C48.0365 40.2905 48.0065 40.5985 48.0065 40.9393V42.2847C48.0065 42.6024 48.0314 42.8986 48.0812 43.1734C48.1342 43.4481 48.2172 43.6898 48.3299 43.8982C48.446 44.1034 48.5968 44.264 48.7824 44.3799C48.9681 44.4956 49.1936 44.5535 49.4588 44.5535C49.7938 44.5535 50.0591 44.499 50.2548 44.3897C50.4503 44.2805 50.5947 44.1066 50.6874 43.8684C50.7835 43.6301 50.8466 43.3191 50.8764 42.9351ZM56.9593 41.113V41.8926H53.8209V41.113H56.9593ZM53.9451 38.0051V45.2337H53.0301V38.0051H53.9451ZM57.7696 38.0051V45.2337H56.8548V38.0051H57.7696ZM64.0816 38.0051V45.2337H63.1616L60.2615 39.6583V45.2337H59.3466V38.0051H60.2615L63.1766 43.5953V38.0051H64.0816ZM70.3736 40.9938V42.2499C70.3736 42.7597 70.3172 43.2081 70.2043 43.5953C70.0949 43.9793 69.9343 44.3004 69.7217 44.5586C69.5093 44.8167 69.2543 45.0103 68.956 45.1395C68.6572 45.2685 68.3211 45.3331 67.9462 45.3331C67.5846 45.3331 67.2546 45.2685 66.9565 45.1395C66.6582 45.0103 66.4009 44.8167 66.1855 44.5586C65.9702 44.3004 65.8026 43.9793 65.6829 43.5953C65.5672 43.2081 65.5091 42.7597 65.5091 42.2499V40.9938C65.5091 40.4843 65.5672 40.0374 65.6829 39.6534C65.7992 39.2662 65.9651 38.9435 66.1803 38.6853C66.3962 38.4271 66.6531 38.2335 66.9514 38.1043C67.25 37.9721 67.5801 37.9058 67.9411 37.9058C68.3157 37.9058 68.6526 37.9721 68.9509 38.1043C69.2526 38.2335 69.5076 38.4271 69.7166 38.6853C69.929 38.9435 70.0915 39.2662 70.2043 39.6534C70.3172 40.0374 70.3736 40.4843 70.3736 40.9938ZM69.4679 42.2499V40.984C69.4679 40.5867 69.435 40.2458 69.3689 39.9612C69.302 39.6733 69.2048 39.4383 69.0752 39.2563C68.9456 39.0741 68.7868 38.9401 68.5979 38.8541C68.4085 38.7648 68.1898 38.7201 67.9411 38.7201C67.7055 38.7201 67.4936 38.7648 67.3048 38.8541C67.1187 38.9401 66.9599 39.0741 66.8269 39.2563C66.6945 39.4383 66.5915 39.6733 66.5189 39.9612C66.4492 40.2458 66.414 40.5867 66.414 40.984V42.2499C66.414 42.6505 66.4492 42.9946 66.5189 43.2826C66.5915 43.5672 66.6945 43.8023 66.8269 43.9875C66.9628 44.1697 67.1258 44.3054 67.3146 44.3947C67.5035 44.4807 67.7142 44.5239 67.9462 44.5239C68.1949 44.5239 68.4136 44.4807 68.6024 44.3947C68.7949 44.3054 68.9543 44.1697 69.0805 43.9875C69.2093 43.8023 69.3054 43.5672 69.3689 43.2826C69.435 42.9946 69.4679 42.6505 69.4679 42.2499ZM75.5462 44.4543V45.2337H72.5419V44.4543H75.5462ZM72.7059 38.0051V45.2337H71.791V38.0051H72.7059ZM81.017 40.9938V42.2499C81.017 42.7597 80.9606 43.2081 80.8477 43.5953C80.7383 43.9793 80.5778 44.3004 80.3653 44.5586C80.1533 44.8167 79.8977 45.0103 79.5994 45.1395C79.3011 45.2685 78.9645 45.3331 78.5896 45.3331C78.2286 45.3331 77.8988 45.2685 77.5999 45.1395C77.3016 45.0103 77.0449 44.8167 76.8289 44.5586C76.6136 44.3004 76.446 43.9793 76.3269 43.5953C76.2106 43.2081 76.153 42.7597 76.153 42.2499V40.9938C76.153 40.4843 76.2106 40.0374 76.3269 39.6534C76.4426 39.2662 76.6085 38.9435 76.8243 38.6853C77.0396 38.4271 77.2965 38.2335 77.5953 38.1043C77.8934 37.9721 78.2235 37.9058 78.585 37.9058C78.9599 37.9058 79.296 37.9721 79.5943 38.1043C79.8966 38.2335 80.1516 38.4271 80.3606 38.6853C80.5724 38.9435 80.7354 39.2662 80.8477 39.6534C80.9606 40.0374 81.017 40.4843 81.017 40.9938ZM80.1119 42.2499V40.984C80.1119 40.5867 80.0784 40.2458 80.0123 39.9612C79.946 39.6733 79.8482 39.4383 79.7186 39.2563C79.5898 39.0741 79.4302 38.9401 79.2413 38.8541C79.0524 38.7648 78.8337 38.7201 78.585 38.7201C78.3494 38.7201 78.137 38.7648 77.9482 38.8541C77.7629 38.9401 77.6033 39.0741 77.4709 39.2563C77.3379 39.4383 77.2355 39.6733 77.1623 39.9612C77.0926 40.2458 77.058 40.5867 77.058 40.984V42.2499C77.058 42.6505 77.0926 42.9946 77.1623 43.2826C77.2355 43.5672 77.3379 43.8023 77.4709 43.9875C77.6067 44.1697 77.7692 44.3054 77.958 44.3947C78.1475 44.4807 78.3576 44.5239 78.5896 44.5239C78.8383 44.5239 79.0572 44.4807 79.2466 44.3947C79.4389 44.3054 79.5977 44.1697 79.7239 43.9875C79.8535 43.8023 79.9496 43.5672 80.0123 43.2826C80.0784 42.9946 80.1119 42.6505 80.1119 42.2499ZM86.9703 41.6343V44.3301C86.8909 44.4361 86.77 44.5685 86.6076 44.7274C86.4482 44.8862 86.2247 45.0268 85.9363 45.1494C85.6479 45.2717 85.2696 45.3331 84.802 45.3331C84.4271 45.3331 84.084 45.2702 83.7726 45.1444C83.464 45.0186 83.1975 44.83 82.9717 44.5784C82.7494 44.3236 82.5773 44.0075 82.4546 43.6301C82.332 43.2495 82.2705 42.8044 82.2705 42.2946V40.9393C82.2705 40.4328 82.3216 39.9893 82.4247 39.6087C82.5271 39.228 82.6797 38.912 82.8824 38.6604C83.088 38.4089 83.3413 38.2202 83.643 38.0944C83.9482 37.9687 84.3029 37.9058 84.7076 37.9058C85.1752 37.9058 85.573 37.9935 85.9012 38.1689C86.2293 38.3445 86.4833 38.5976 86.6623 38.9285C86.8449 39.2595 86.9473 39.6566 86.9703 40.12H86.0554C86.0325 39.8223 85.969 39.5673 85.8666 39.3555C85.7636 39.1404 85.6179 38.9766 85.4284 38.8639C85.2396 38.7482 84.9994 38.6903 84.7076 38.6903C84.4289 38.6903 84.1934 38.7366 84.0012 38.8294C83.8089 38.9219 83.6516 39.061 83.529 39.2462C83.4093 39.4317 83.3217 39.665 83.2653 39.9464C83.2123 40.2278 83.1853 40.5553 83.1853 40.9294V42.2946C83.1853 42.6786 83.2239 43.0128 83.2999 43.2976C83.3764 43.582 83.4842 43.8171 83.6234 44.0025C83.7656 44.1878 83.9366 44.3268 84.1353 44.4196C84.3344 44.5089 84.5584 44.5535 84.8071 44.5535C85.0887 44.5535 85.311 44.5239 85.4733 44.4642C85.6357 44.4047 85.76 44.3367 85.8464 44.2605C85.9363 44.1845 86.007 44.1234 86.0606 44.077V42.4088H84.7323V41.6343H86.9703ZM89.4074 38.0051V45.2337H88.4926V38.0051H89.4074ZM94.8938 44.4543V45.2337H91.7503V44.4543H94.8938ZM91.9143 38.0051V45.2337H90.9994V38.0051H91.9143ZM94.4707 41.113V41.8926H91.7503V41.113H94.4707ZM94.8439 38.0051V38.7896H91.7503V38.0051H94.8439ZM99.2304 43.4067C99.2304 43.238 99.2108 43.089 99.1711 42.9598C99.1314 42.8275 99.0619 42.7084 98.9621 42.6024C98.8626 42.4966 98.7233 42.3955 98.5441 42.2995C98.3651 42.2036 98.1383 42.1059 97.863 42.0067C97.5649 41.9007 97.2943 41.7833 97.0524 41.6541C96.81 41.5219 96.6027 41.3712 96.4306 41.2025C96.2613 41.0336 96.1306 40.8399 96.0378 40.6214C95.9447 40.4031 95.8986 40.1533 95.8986 39.8719C95.8986 39.5905 95.9464 39.3308 96.0426 39.0923C96.1421 38.8541 96.2814 38.6471 96.4606 38.4718C96.643 38.293 96.8619 38.1541 97.1168 38.0547C97.3726 37.9555 97.6576 37.9058 97.9724 37.9058C98.4434 37.9058 98.8396 38.0101 99.1614 38.2185C99.4861 38.4239 99.7314 38.6935 99.8971 39.0279C100.063 39.3589 100.146 39.7131 100.146 40.0904H99.2304C99.2304 39.8189 99.1861 39.5789 99.0963 39.3705C99.01 39.1586 98.8741 38.9931 98.6887 38.874C98.5061 38.7515 98.2673 38.6903 97.9724 38.6903C97.707 38.6903 97.4883 38.7416 97.3162 38.8442C97.1469 38.9468 97.0207 39.0859 96.9379 39.2612C96.8584 39.4366 96.8185 39.6369 96.8185 39.862C96.8185 40.0142 96.8451 40.1533 96.8982 40.2789C96.951 40.4014 97.0323 40.5156 97.1415 40.6214C97.2544 40.7275 97.3939 40.8251 97.5595 40.9144C97.7288 41.0039 97.9276 41.0898 98.1567 41.1726C98.5114 41.2884 98.8149 41.4176 99.0664 41.5599C99.3186 41.7022 99.5241 41.8627 99.6835 42.0415C99.8426 42.2169 99.9589 42.4171 100.031 42.6421C100.108 42.8638 100.146 43.1154 100.146 43.3968C100.146 43.6913 100.096 43.9579 99.9969 44.1961C99.9007 44.4344 99.7595 44.6381 99.5743 44.8068C99.3883 44.9755 99.1643 45.1064 98.9023 45.199C98.6403 45.2883 98.3456 45.3331 98.0174 45.3331C97.7319 45.3331 97.452 45.2867 97.1767 45.194C96.9044 45.1013 96.6574 44.9624 96.4357 44.777C96.2136 44.5915 96.0361 44.3633 95.9031 44.0918C95.7707 43.8171 95.7046 43.4994 95.7046 43.1386H96.6194C96.6194 43.3869 96.6563 43.6003 96.7289 43.7791C96.802 43.9544 96.9033 44.1002 97.0323 44.2159C97.1619 44.3318 97.3091 44.4179 97.475 44.4741C97.6443 44.5271 97.825 44.5535 98.0174 44.5535C98.2823 44.5535 98.5044 44.5072 98.6836 44.4146C98.866 44.3219 99.0018 44.1895 99.0917 44.0173C99.1844 43.8452 99.2304 43.6417 99.2304 43.4067ZM105.99 42.3989H104.408V41.6193H105.99C106.289 41.6193 106.529 41.5599 106.711 41.4407C106.897 41.3216 107.031 41.1561 107.114 40.9443C107.2 40.7324 107.243 40.4907 107.243 40.2194C107.243 39.9711 107.2 39.7378 107.114 39.5192C107.031 39.3009 106.897 39.1256 106.711 38.9931C106.529 38.8575 106.289 38.7896 105.99 38.7896H104.597V45.2337H103.682V38.0051H105.99C106.457 38.0051 106.852 38.0994 107.174 38.288C107.495 38.4767 107.739 38.7382 107.905 39.0726C108.074 39.4035 108.159 39.7826 108.159 40.2095C108.159 40.6727 108.074 41.0683 107.905 41.3961C107.739 41.7236 107.495 41.9735 107.174 42.1456C106.852 42.3145 106.457 42.3989 105.99 42.3989ZM111.322 44.1365L113.062 38.0051H114.057L111.809 45.2337H111.108L111.322 44.1365ZM109.76 38.0051L111.486 44.1365L111.715 45.2337H111.013L108.766 38.0051H109.76ZM117.37 38.0051V45.2337H116.465V38.0051H117.37ZM119.275 38.0051V38.7896H114.565V38.0051H119.275ZM119.195 44.7471C119.195 44.5915 119.243 44.461 119.339 44.355C119.439 44.2457 119.582 44.1912 119.767 44.1912C119.953 44.1912 120.094 44.2457 120.19 44.355C120.289 44.461 120.339 44.5915 120.339 44.7471C120.339 44.8995 120.289 45.0285 120.19 45.1344C120.094 45.2404 119.953 45.2934 119.767 45.2934C119.582 45.2934 119.439 45.2404 119.339 45.1344C119.243 45.0285 119.195 44.8995 119.195 44.7471ZM128.039 44.4543V45.2337H125.034V44.4543H128.039ZM125.198 38.0051V45.2337H124.283V38.0051H125.198ZM130.082 38.0051V45.2337H129.177V38.0051H130.082ZM131.988 38.0051V38.7896H127.277V38.0051H131.988ZM134.698 45.2337H133.465L133.475 44.4543H134.698C135.132 44.4543 135.486 44.3715 135.758 44.206C136.029 44.0373 136.23 43.789 136.359 43.4614C136.489 43.1304 136.553 42.7215 136.553 42.2351V40.9988C136.553 40.615 136.517 40.284 136.444 40.0058C136.371 39.7279 136.261 39.4995 136.116 39.3207C135.97 39.1421 135.786 39.0097 135.564 38.9236C135.341 38.8343 135.081 38.7896 134.783 38.7896H133.44V38.0051H134.783C135.19 38.0051 135.558 38.0697 135.887 38.1987C136.215 38.3245 136.497 38.5149 136.732 38.7697C136.968 39.0213 137.147 39.334 137.269 39.7081C137.396 40.082 137.458 40.5156 137.458 41.0089V42.2351C137.458 42.7282 137.396 43.1618 137.269 43.5359C137.147 43.9098 136.966 44.2225 136.727 44.4741C136.489 44.7257 136.199 44.916 135.857 45.0451C135.519 45.1708 135.132 45.2337 134.698 45.2337ZM133.972 38.0051V45.2337H133.057V38.0051H133.972ZM138.304 44.7471C138.304 44.5915 138.352 44.461 138.448 44.355C138.548 44.2457 138.69 44.1912 138.876 44.1912C139.062 44.1912 139.203 44.2457 139.299 44.355C139.398 44.461 139.448 44.5915 139.448 44.7471C139.448 44.8995 139.398 45.0285 139.299 45.1344C139.203 45.2404 139.062 45.2934 138.876 45.2934C138.69 45.2934 138.548 45.2404 138.448 45.1344C138.352 45.0285 138.304 44.8995 138.304 44.7471Z" fill="white"/>
</g>
</svg>
