<svg width="20" height="20" viewBox="0 0 20 20" fill="none" xmlns="http://www.w3.org/2000/svg">
<g clip-path="url(#clip0_131_3691)">
<path d="M16.8766 10.2867C16.7956 8.83088 15.5502 7.74946 14.1274 7.82835C12.6879 7.90843 11.589 9.13844 11.6691 10.5775C11.7491 12.0161 12.9808 13.116 14.4182 13.0359C15.8467 12.9558 16.9564 11.7199 16.8766 10.2867ZM14.1508 8.23536C15.3624 8.1678 16.4023 9.09852 16.4696 10.3101C16.5374 11.5236 15.6062 12.5615 14.3948 12.6289C13.1814 12.6964 12.1434 11.7657 12.0758 10.5541C12.0085 9.34254 12.9392 8.30269 14.1508 8.23536ZM14.2044 9.21096C13.5284 9.24852 13.0141 9.8249 13.0517 10.5005C13.0892 11.1752 13.668 11.6906 14.3412 11.6533C15.0159 11.6157 15.5313 11.0372 15.494 10.3637C15.4562 9.68766 14.88 9.1734 14.2044 9.21096ZM3.08451 10.8265H9.20669C9.47716 10.8265 9.69661 11.0459 9.69661 11.3162V16.0182C9.69661 16.2887 9.47716 16.5079 9.20669 16.5079H3.08451C2.81404 16.5079 2.59482 16.2887 2.59482 16.0182V11.3162C2.59482 11.0459 2.81404 10.8265 3.08451 10.8265ZM8.717 11.8061H3.5742V15.5285H8.717V11.8061ZM2.88868 7.64292C2.2445 7.64292 2.2445 6.6633 2.88868 6.6633H7.78628C8.43046 6.6633 8.43046 7.64292 7.78628 7.64292H2.88868ZM2.88868 6.02669C2.2445 6.02669 2.2445 5.04707 2.88868 5.04707H7.78628C8.43046 5.04707 8.43046 6.02669 7.78628 6.02669H2.88868ZM1.18812 3.03895H14.0991V1.80799H1.18812V3.03895ZM14.0991 4.01856H1.18812V18.1917H14.0991V14.0129C12.2707 13.9253 10.7955 12.4671 10.6932 10.6311C10.5832 8.65608 12.0988 6.9626 14.0738 6.85252L14.0991 6.85134V4.01856ZM17.2449 12.4361L19.6236 14.5638C20.1013 14.9911 19.4507 15.7182 18.9733 15.2909L16.5945 13.1632C16.1471 13.5447 15.6256 13.7996 15.0787 13.9255V18.6816C15.0787 18.9521 14.8595 19.1713 14.589 19.1713H0.698429C0.427955 19.1713 0.20874 18.9521 0.20874 18.6816V1.3183C0.20874 1.04783 0.427955 0.828613 0.698429 0.828613H14.589C14.8595 0.828613 15.0787 1.04783 15.0787 1.3183V6.9385C16.629 7.29544 17.7636 8.63883 17.8522 10.2331C17.8947 10.9951 17.6946 11.7714 17.2449 12.4361Z" fill="white"/>
</g>
<defs>
<clipPath id="clip0_131_3691">
<rect width="20" height="20" fill="white"/>
</clipPath>
</defs>
</svg>
