<svg width="14" height="14" viewBox="0 0 14 14" fill="none" xmlns="http://www.w3.org/2000/svg">
<path d="M13.3538 12.6464L10.2244 9.51764C11.1314 8.42871 11.5837 7.03201 11.4872 5.6181C11.3906 4.20419 10.7527 2.88193 9.70611 1.92637C8.65951 0.970822 7.2848 0.455551 5.86796 0.487751C4.45113 0.519951 3.10125 1.09714 2.09913 2.09926C1.09702 3.10137 0.519829 4.45125 0.487629 5.86808C0.455429 7.28492 0.9707 8.65963 1.92625 9.70623C2.88181 10.7528 4.20407 11.3908 5.61798 11.4873C7.03189 11.5838 8.42859 11.1315 9.51752 10.2245L12.6463 13.3539C12.6927 13.4003 12.7479 13.4372 12.8086 13.4623C12.8693 13.4875 12.9343 13.5004 13 13.5004C13.0657 13.5004 13.1308 13.4875 13.1915 13.4623C13.2522 13.4372 13.3073 13.4003 13.3538 13.3539C13.4002 13.3074 13.4371 13.2523 13.4622 13.1916C13.4874 13.1309 13.5003 13.0658 13.5003 13.0001C13.5003 12.9344 13.4874 12.8694 13.4622 12.8087C13.4371 12.748 13.4002 12.6928 13.3538 12.6464ZM1.50002 6.00014C1.50002 5.11013 1.76394 4.2401 2.25841 3.50008C2.75287 2.76006 3.45568 2.18328 4.27795 1.84268C5.10021 1.50209 6.00501 1.41298 6.87793 1.58661C7.75084 1.76024 8.55266 2.18883 9.182 2.81816C9.81134 3.4475 10.2399 4.24932 10.4136 5.12224C10.5872 5.99515 10.4981 6.89995 10.1575 7.72222C9.81688 8.54449 9.24011 9.24729 8.50009 9.74176C7.76007 10.2362 6.89004 10.5001 6.00002 10.5001C4.80695 10.4988 3.66313 10.0243 2.8195 9.18066C1.97587 8.33704 1.50134 7.19321 1.50002 6.00014Z" fill="#A5A5A5"/>
</svg>
