<svg width="25" height="24" viewBox="0 0 25 24" fill="none" xmlns="http://www.w3.org/2000/svg">
<path d="M12.5 7.49998C11.61 7.49998 10.74 7.7639 9.99993 8.25837C9.25991 8.75284 8.68313 9.45564 8.34254 10.2779C8.00194 11.1002 7.91283 12.005 8.08646 12.8779C8.2601 13.7508 8.68868 14.5526 9.31801 15.182C9.94735 15.8113 10.7492 16.2399 11.6221 16.4135C12.495 16.5872 13.3998 16.498 14.2221 16.1574C15.0443 15.8168 15.7471 15.2401 16.2416 14.5C16.7361 13.76 17 12.89 17 12C16.9988 10.8069 16.5243 9.66302 15.6806 8.81937C14.837 7.97573 13.6931 7.50122 12.5 7.49998ZM12.5 15C11.9067 15 11.3266 14.824 10.8333 14.4944C10.3399 14.1647 9.95542 13.6962 9.72836 13.148C9.50129 12.5999 9.44188 11.9967 9.55764 11.4147C9.67339 10.8328 9.95912 10.2982 10.3787 9.87866C10.7982 9.45911 11.3328 9.17338 11.9147 9.05763C12.4967 8.94187 13.0999 9.00128 13.648 9.22834C14.1962 9.45541 14.6648 9.83993 14.9944 10.3333C15.324 10.8266 15.5 11.4066 15.5 12C15.5 12.7956 15.1839 13.5587 14.6213 14.1213C14.0587 14.6839 13.2956 15 12.5 15ZM22.8069 10.0509C22.786 9.94531 22.7426 9.84543 22.6797 9.75807C22.6167 9.67072 22.5357 9.59793 22.4422 9.54467L19.6456 7.95092L19.6344 4.79904C19.634 4.6905 19.6101 4.58331 19.5643 4.4849C19.5185 4.38649 19.4519 4.29919 19.3691 4.22904C18.3546 3.37095 17.1864 2.71336 15.9266 2.29123C15.8273 2.25765 15.7222 2.24522 15.6179 2.25475C15.5136 2.26428 15.4124 2.29555 15.3209 2.34654L12.5 3.92342L9.67624 2.34373C9.5847 2.29245 9.48341 2.26094 9.37893 2.25125C9.27445 2.24156 9.1691 2.2539 9.06968 2.28748C7.81076 2.71269 6.64389 3.37279 5.63093 4.23279C5.54822 4.30284 5.48166 4.38999 5.43586 4.48823C5.39006 4.58647 5.3661 4.69347 5.36562 4.80186L5.35156 7.95655L2.555 9.5503C2.46143 9.60356 2.38044 9.67634 2.31751 9.7637C2.25458 9.85105 2.2112 9.95093 2.19031 10.0565C1.93437 11.3427 1.93437 12.6667 2.19031 13.9528C2.2112 14.0584 2.25458 14.1583 2.31751 14.2456C2.38044 14.333 2.46143 14.4058 2.555 14.459L5.35156 16.0528L5.36281 19.2047C5.36315 19.3132 5.38705 19.4204 5.43285 19.5188C5.47866 19.6172 5.54528 19.7045 5.62812 19.7747C6.64256 20.6328 7.81077 21.2904 9.07062 21.7125C9.16983 21.7461 9.27498 21.7585 9.37929 21.749C9.4836 21.7394 9.58476 21.7082 9.67624 21.6572L12.5 20.0765L15.3237 21.6562C15.4355 21.7185 15.5615 21.7508 15.6894 21.75C15.7713 21.75 15.8526 21.7367 15.9303 21.7106C17.1891 21.286 18.3559 20.6265 19.3691 19.7672C19.4518 19.6971 19.5183 19.61 19.5641 19.5117C19.6099 19.4135 19.6339 19.3065 19.6344 19.1981L19.6484 16.0434L22.445 14.4497C22.5386 14.3964 22.6196 14.3236 22.6825 14.2363C22.7454 14.1489 22.7888 14.049 22.8097 13.9434C23.0642 12.6583 23.0632 11.3357 22.8069 10.0509ZM21.4006 13.3237L18.7222 14.8472C18.6048 14.9139 18.5077 15.0111 18.4409 15.1284C18.3866 15.2222 18.3294 15.3215 18.2712 15.4153C18.1968 15.5335 18.1572 15.6703 18.1569 15.81L18.1428 18.8334C17.4229 19.3988 16.6208 19.8509 15.7644 20.174L13.0625 18.6684C12.9503 18.6064 12.8241 18.5741 12.6959 18.5747H12.6781C12.5647 18.5747 12.4503 18.5747 12.3369 18.5747C12.2027 18.5713 12.0701 18.6037 11.9525 18.6684L9.24874 20.1778C8.39047 19.8571 7.5862 19.4072 6.86375 18.8437L6.85343 15.825C6.85297 15.685 6.81335 15.548 6.73906 15.4294C6.68093 15.3356 6.62375 15.2419 6.57031 15.1425C6.50405 15.0233 6.40689 14.9242 6.28906 14.8556L3.60781 13.3284C3.46906 12.4507 3.46906 11.5567 3.60781 10.679L6.28156 9.1528C6.39891 9.08607 6.49608 8.9889 6.56281 8.87155C6.61718 8.7778 6.67437 8.67842 6.7325 8.58467C6.8069 8.46645 6.84653 8.32967 6.84687 8.18998L6.86093 5.16654C7.58087 4.60118 8.38293 4.14909 9.23937 3.82592L11.9375 5.33154C12.0549 5.39664 12.1877 5.42901 12.3219 5.42529C12.4353 5.42529 12.5497 5.42529 12.6631 5.42529C12.7973 5.42865 12.9299 5.39629 13.0475 5.33154L15.7512 3.82217C16.6095 4.14286 17.4138 4.59274 18.1362 5.15623L18.1466 8.17498C18.147 8.31495 18.1866 8.45199 18.2609 8.57061C18.3191 8.66436 18.3762 8.75811 18.4297 8.85748C18.4959 8.97665 18.5931 9.07575 18.7109 9.14436L21.3922 10.6715C21.5328 11.5499 21.5344 12.4449 21.3969 13.3237H21.4006Z" fill="#3C50FF"/>
</svg>
