<svg width="19" height="19" viewBox="0 0 19 19" fill="none" xmlns="http://www.w3.org/2000/svg">
<path d="M18.4763 17.1497C18.5634 17.2368 18.6325 17.3403 18.6796 17.4541C18.7268 17.5679 18.751 17.6898 18.751 17.813C18.751 17.9362 18.7268 18.0582 18.6796 18.172C18.6325 18.2858 18.5634 18.3892 18.4763 18.4763C18.3892 18.5634 18.2858 18.6325 18.172 18.6796C18.0582 18.7268 17.9362 18.751 17.813 18.751C17.6898 18.751 17.5679 18.7268 17.4541 18.6796C17.3403 18.6325 17.2368 18.5634 17.1497 18.4763L9.37552 10.7009L1.6013 18.4763C1.42539 18.6522 1.1868 18.751 0.938021 18.751C0.689243 18.751 0.450653 18.6522 0.27474 18.4763C0.0988269 18.3004 4.90402e-09 18.0618 0 17.813C-4.90402e-09 17.5642 0.0988269 17.3257 0.27474 17.1497L8.05013 9.37552L0.27474 1.6013C0.0988269 1.42539 0 1.1868 0 0.938021C0 0.689243 0.0988269 0.450653 0.27474 0.27474C0.450653 0.0988269 0.689243 0 0.938021 0C1.1868 0 1.42539 0.0988269 1.6013 0.27474L9.37552 8.05013L17.1497 0.27474C17.3257 0.0988269 17.5642 -4.90402e-09 17.813 0C18.0618 4.90402e-09 18.3004 0.0988269 18.4763 0.27474C18.6522 0.450653 18.751 0.689243 18.751 0.938021C18.751 1.1868 18.6522 1.42539 18.4763 1.6013L10.7009 9.37552L18.4763 17.1497Z" fill="#3C50FF"/>
</svg>
